<svg width="20" height="19" viewBox="0 0 20 19" fill="none" xmlns="http://www.w3.org/2000/svg">
<path d="M17.4244 4.77268H15.0607C15.0607 3.51893 14.5627 2.31653 13.6761 1.43C12.7896 0.543461 11.5872 0.0454102 10.3335 0.0454102C9.0797 0.0454102 7.8773 0.543461 6.99077 1.43C6.10423 2.31653 5.60618 3.51893 5.60618 4.77268H3.24254C2.61567 4.77268 2.01447 5.02171 1.5712 5.46498C1.12793 5.90824 0.878906 6.50944 0.878906 7.13632L0.878906 15.0151C0.880157 16.0595 1.2956 17.0608 2.03411 17.7993C2.77262 18.5378 3.77389 18.9533 4.8183 18.9545H15.8486C16.893 18.9533 17.8943 18.5378 18.6328 17.7993C19.3713 17.0608 19.7867 16.0595 19.788 15.0151V7.13632C19.788 6.50944 19.539 5.90824 19.0957 5.46498C18.6524 5.02171 18.0512 4.77268 17.4244 4.77268ZM10.3335 1.62117C11.1693 1.62117 11.9709 1.9532 12.5619 2.54423C13.1529 3.13525 13.485 3.93685 13.485 4.77268H7.18194C7.18194 3.93685 7.51397 3.13525 8.10499 2.54423C8.69602 1.9532 9.49762 1.62117 10.3335 1.62117ZM18.2122 15.0151C18.2122 15.642 17.9632 16.2432 17.5199 16.6865C17.0767 17.1297 16.4755 17.3787 15.8486 17.3787H4.8183C4.19142 17.3787 3.59022 17.1297 3.14696 16.6865C2.70369 16.2432 2.45466 15.642 2.45466 15.0151V7.13632C2.45466 6.92736 2.53767 6.72696 2.68543 6.57921C2.83318 6.43145 3.03358 6.34844 3.24254 6.34844H5.60618V7.9242C5.60618 8.13316 5.68919 8.33356 5.83694 8.48131C5.9847 8.62907 6.1851 8.71208 6.39406 8.71208C6.60302 8.71208 6.80342 8.62907 6.95117 8.48131C7.09893 8.33356 7.18194 8.13316 7.18194 7.9242V6.34844H13.485V7.9242C13.485 8.13316 13.568 8.33356 13.7157 8.48131C13.8635 8.62907 14.0639 8.71208 14.2728 8.71208C14.4818 8.71208 14.6822 8.62907 14.83 8.48131C14.9777 8.33356 15.0607 8.13316 15.0607 7.9242V6.34844H17.4244C17.6333 6.34844 17.8337 6.43145 17.9815 6.57921C18.1292 6.72696 18.2122 6.92736 18.2122 7.13632V15.0151Z" fill="#5D554A"/>
</svg>
