<svg width="44" height="44" viewBox="0 0 44 44" fill="none" xmlns="http://www.w3.org/2000/svg">
<g clip-path="url(#clip0_555_7131)">
<path d="M38.4645 7.35621H32.8618C32.4423 5.3165 31.3325 3.48376 29.7193 2.1669C28.1062 0.850042 26.0884 0.129582 24.006 0.126953L20.3913 0.126953C18.3089 0.129582 16.2911 0.850042 14.6779 2.1669C13.0648 3.48376 11.955 5.3165 11.5355 7.35621H5.9328C5.45347 7.35621 4.99378 7.54663 4.65484 7.88556C4.3159 8.2245 4.12549 8.6842 4.12549 9.16353C4.12549 9.64286 4.3159 10.1026 4.65484 10.4415C4.99378 10.7804 5.45347 10.9708 5.9328 10.9708H7.74012V34.4659C7.74299 36.8617 8.69597 39.1585 10.39 40.8526C12.0841 42.5467 14.3809 43.4996 16.7767 43.5025H27.6206C30.0164 43.4996 32.3132 42.5467 34.0072 40.8526C35.7013 39.1585 36.6543 36.8617 36.6572 34.4659V10.9708H38.4645C38.9438 10.9708 39.4035 10.7804 39.7424 10.4415C40.0814 10.1026 40.2718 9.64286 40.2718 9.16353C40.2718 8.6842 40.0814 8.2245 39.7424 7.88556C39.4035 7.54663 38.9438 7.35621 38.4645 7.35621V7.35621ZM20.3913 3.74158H24.006C25.127 3.74295 26.2201 4.09108 27.1355 4.73822C28.0509 5.38536 28.7437 6.29982 29.1188 7.35621H15.2784C15.6536 6.29982 16.3464 5.38536 17.2618 4.73822C18.1771 4.09108 19.2703 3.74295 20.3913 3.74158V3.74158ZM33.0425 34.4659C33.0425 35.9039 32.4713 37.283 31.4545 38.2998C30.4377 39.3166 29.0586 39.8879 27.6206 39.8879H16.7767C15.3387 39.8879 13.9596 39.3166 12.9428 38.2998C11.926 37.283 11.3547 35.9039 11.3547 34.4659V10.9708H33.0425V34.4659Z" fill="#FF3B30"/>
<path d="M18.5849 32.6577C19.0642 32.6577 19.5239 32.4673 19.8629 32.1284C20.2018 31.7894 20.3922 31.3297 20.3922 30.8504V20.0065C20.3922 19.5272 20.2018 19.0675 19.8629 18.7286C19.5239 18.3896 19.0642 18.1992 18.5849 18.1992C18.1056 18.1992 17.6459 18.3896 17.3069 18.7286C16.968 19.0675 16.7776 19.5272 16.7776 20.0065V30.8504C16.7776 31.3297 16.968 31.7894 17.3069 32.1284C17.6459 32.4673 18.1056 32.6577 18.5849 32.6577Z" fill="#FF3B30"/>
<path d="M25.8151 32.6577C26.2945 32.6577 26.7542 32.4673 27.0931 32.1284C27.432 31.7894 27.6225 31.3297 27.6225 30.8504V20.0065C27.6225 19.5272 27.432 19.0675 27.0931 18.7286C26.7542 18.3896 26.2945 18.1992 25.8151 18.1992C25.3358 18.1992 24.8761 18.3896 24.5372 18.7286C24.1982 19.0675 24.0078 19.5272 24.0078 20.0065V30.8504C24.0078 31.3297 24.1982 31.7894 24.5372 32.1284C24.8761 32.4673 25.3358 32.6577 25.8151 32.6577Z" fill="#FF3B30"/>
</g>
<defs>
<clipPath id="clip0_555_7131">
<rect width="43.3756" height="43.3756" fill="white" transform="translate(0.511719 0.126953)"/>
</clipPath>
</defs>
</svg>
