<svg width="16" height="16" viewBox="0 0 16 16" fill="none" xmlns="http://www.w3.org/2000/svg">
<path fill-rule="evenodd" clip-rule="evenodd" d="M4.45409 1.95127C5.62733 1.82121 6.80668 1.71373 8.00042 1.71373C9.19415 1.71373 10.3735 1.82121 11.5467 1.95127C12.8608 2.09693 13.9217 3.15959 14.0611 4.47105C14.1851 5.63689 14.2861 6.81086 14.2861 7.99944C14.2861 9.18802 14.1851 10.362 14.0611 11.5278C13.9217 12.8393 12.8608 13.902 11.5467 14.0477C10.3735 14.1777 9.19415 14.2852 8.00042 14.2852C6.80668 14.2852 5.62733 14.1777 4.45409 14.0477C3.1401 13.902 2.07916 12.8393 1.93969 11.5278C1.8157 10.362 1.7147 9.18802 1.7147 7.99944C1.7147 6.81086 1.8157 5.63689 1.93969 4.47105C2.07916 3.15959 3.1401 2.09693 4.45409 1.95127ZM8.00042 0.285156C6.72579 0.285156 5.48337 0.399845 4.29669 0.531394C2.31914 0.750613 0.729878 2.33831 0.519127 4.31998C0.393575 5.50053 0.286133 6.73418 0.286133 7.99944C0.286133 9.26469 0.393575 10.4984 0.519127 11.6789C0.729878 13.6606 2.31914 15.2482 4.29669 15.4674C5.48337 15.599 6.72579 15.7137 8.00042 15.7137C9.27505 15.7137 10.5175 15.599 11.7042 15.4674C13.6817 15.2482 15.2709 13.6606 15.4817 11.6789C15.6073 10.4984 15.7147 9.26469 15.7147 7.99944C15.7147 6.73418 15.6073 5.50053 15.4817 4.31998C15.2709 2.33831 13.6817 0.750613 11.7042 0.531394C10.5175 0.399845 9.27505 0.285156 8.00042 0.285156ZM11.1243 6.08574C11.4749 5.76768 11.5013 5.22561 11.1833 4.875C10.8653 4.52438 10.3232 4.49798 9.97256 4.81604C9.11726 5.59191 8.46616 6.29701 7.91508 7.15714C7.56636 7.70144 7.26712 8.29317 6.98048 8.98229L6.06666 8.03991C5.7371 7.70007 5.19446 7.69172 4.85461 8.02126C4.51477 8.35081 4.50642 8.89345 4.83597 9.2333L6.68947 11.1447C6.8965 11.3582 7.1994 11.4492 7.48979 11.385C7.78017 11.3208 8.01654 11.1107 8.11432 10.8298C8.54006 9.60685 8.91371 8.77623 9.35853 8.08193C9.79996 7.39293 10.3346 6.80218 11.1243 6.08574Z" fill="#FC8700"/>
</svg>
