<svg width="16" height="16" viewBox="0 0 16 16" fill="none" xmlns="http://www.w3.org/2000/svg">
<path fill-rule="evenodd" clip-rule="evenodd" d="M2.74931 3.58046C1.91817 4.39029 1.42857 5.62399 1.42857 7.33002C1.42857 9.46504 2.042 11.0339 3.10704 12.0716C4.17482 13.1119 5.79507 13.7146 8 13.7146C10.2049 13.7146 11.8251 13.1119 12.8929 12.0716C13.9579 11.0338 14.5714 9.46495 14.5714 7.32993C14.5714 6.93543 14.8912 6.61564 15.2857 6.61564C15.6802 6.61564 16 6.93543 16 7.32993C16 9.73821 15.3021 11.7188 13.8899 13.0947C12.4806 14.4679 10.4579 15.1431 8 15.1431C5.54207 15.1431 3.51945 14.4679 2.1101 13.0948C0.697999 11.7189 0 9.7383 0 7.33002C0 5.35073 0.574168 3.70526 1.75237 2.55727C2.92782 1.41196 4.60646 0.857422 6.62411 0.857422C8.64177 0.857422 10.3204 1.41196 11.4959 2.55727C12.6741 3.70526 13.2482 5.35073 13.2482 7.33002C13.2482 8.87686 12.7989 10.1845 11.8565 11.1027C10.9168 12.0182 9.58487 12.4511 8.01105 12.4511C6.43721 12.4511 5.10531 12.0182 4.16563 11.1026C3.22322 10.1844 2.77387 8.87678 2.77387 7.32993C2.77387 6.22751 3.09494 5.26711 3.79504 4.58496C4.4924 3.9055 5.46795 3.5976 6.58566 3.5976C7.70337 3.5976 8.67893 3.90551 9.37629 4.585C10.0764 5.26715 10.3975 6.22755 10.3975 7.32997C10.3975 8.00215 10.2005 8.62642 9.73502 9.07998C9.27223 9.53086 8.64165 9.71775 7.96552 9.71775C7.28938 9.71775 6.65881 9.53085 6.19603 9.07994C5.73053 8.62636 5.53366 8.0021 5.53366 7.32993C5.53366 6.93543 5.85345 6.61564 6.24794 6.61564C6.64243 6.61564 6.96223 6.93543 6.96223 7.32993C6.96223 7.72883 7.07453 7.94133 7.19298 8.05676C7.31419 8.17485 7.54241 8.28918 7.96552 8.28918C8.38865 8.28918 8.61689 8.17486 8.7381 8.05676C8.85657 7.94134 8.96888 7.72885 8.96888 7.32997C8.96888 6.50082 8.73239 5.95218 8.37934 5.60818C8.02354 5.26151 7.45035 5.02618 6.58566 5.02618C5.72096 5.02618 5.14777 5.2615 4.79198 5.60817C4.43894 5.95215 4.20245 6.50077 4.20245 7.32993C4.20245 8.60351 4.56722 9.49936 5.16258 10.0795C5.7607 10.6622 6.69023 11.0226 8.01105 11.0226C9.33187 11.0226 10.2614 10.6623 10.8595 10.0795C11.4549 9.49942 11.8197 8.60361 11.8197 7.33002C11.8197 5.62399 11.3301 4.39029 10.4989 3.58046C9.66502 2.76795 8.38874 2.28599 6.62411 2.28599C4.85947 2.28599 3.5832 2.76795 2.74931 3.58046Z" fill="#FC8700"/>
</svg>
