<svg width="14" height="16" viewBox="0 0 14 16" fill="none" xmlns="http://www.w3.org/2000/svg">
<path d="M11.6663 5.616V4.66667C11.6663 3.42899 11.1747 2.242 10.2995 1.36684C9.42434 0.491665 8.23735 0 6.99967 0C5.762 0 4.57501 0.491665 3.69984 1.36684C2.82467 2.242 2.33301 3.42899 2.33301 4.66667V5.616C1.73925 5.87514 1.23387 6.30168 0.878674 6.84347C0.523478 7.38527 0.33386 8.01882 0.333008 8.66667V12.6667C0.334066 13.5504 0.685596 14.3976 1.31049 15.0225C1.93538 15.6474 2.78261 15.9989 3.66634 16H10.333C11.2167 15.9989 12.064 15.6474 12.6889 15.0225C13.3138 14.3976 13.6653 13.5504 13.6663 12.6667V8.66667C13.6655 8.01882 13.4759 7.38527 13.1207 6.84347C12.7655 6.30168 12.2601 5.87514 11.6663 5.616ZM3.66634 4.66667C3.66634 3.78261 4.01753 2.93477 4.64265 2.30964C5.26777 1.68452 6.11562 1.33333 6.99967 1.33333C7.88373 1.33333 8.73158 1.68452 9.3567 2.30964C9.98182 2.93477 10.333 3.78261 10.333 4.66667V5.33333H3.66634V4.66667ZM12.333 12.6667C12.333 13.1971 12.1223 13.7058 11.7472 14.0809C11.3721 14.456 10.8634 14.6667 10.333 14.6667H3.66634C3.13591 14.6667 2.6272 14.456 2.25213 14.0809C1.87705 13.7058 1.66634 13.1971 1.66634 12.6667V8.66667C1.66634 8.13623 1.87705 7.62753 2.25213 7.25245C2.6272 6.87738 3.13591 6.66667 3.66634 6.66667H10.333C10.8634 6.66667 11.3721 6.87738 11.7472 7.25245C12.1223 7.62753 12.333 8.13623 12.333 8.66667V12.6667Z" fill="#FC8700"/>
</svg>
