<svg width="16" height="16" viewBox="0 0 16 16" fill="none" xmlns="http://www.w3.org/2000/svg">
<path d="M1.33301 7.99935C1.33301 5.48519 1.33301 4.22812 2.11405 3.44706C2.89511 2.66602 4.15218 2.66602 6.66634 2.66602H9.33301C11.8471 2.66602 13.1043 2.66602 13.8853 3.44706C14.6663 4.22812 14.6663 5.48519 14.6663 7.99935C14.6663 10.5135 14.6663 11.7706 13.8853 12.5516C13.1043 13.3327 11.8471 13.3327 9.33301 13.3327H6.66634C4.15218 13.3327 2.89511 13.3327 2.11405 12.5516C1.33301 11.7706 1.33301 10.5135 1.33301 7.99935Z" stroke="#FC8700" stroke-width="1.5"/>
<path d="M4 5.33398L5.43927 6.53337C6.66369 7.55372 7.27593 8.06392 8 8.06392C8.72407 8.06392 9.33633 7.55372 10.5607 6.53337L12 5.33398" stroke="#FC8700" stroke-width="1.5" stroke-linecap="round"/>
</svg>
