<svg width="24" height="23" viewBox="0 0 24 23" fill="none" xmlns="http://www.w3.org/2000/svg">
<g clip-path="url(#clip0_4942_1235)">
<path d="M20.6666 10.7117H3.33329C2.89816 10.7117 2.54541 11.0644 2.54541 11.4996C2.54541 11.9347 2.89816 12.2874 3.33329 12.2874H20.6666C21.1018 12.2874 21.4545 11.9347 21.4545 11.4996C21.4545 11.0644 21.1018 10.7117 20.6666 10.7117Z" fill="#5D554A"/>
<path d="M20.6666 5.19727H3.33329C2.89816 5.19727 2.54541 5.55001 2.54541 5.98514C2.54541 6.42028 2.89816 6.77302 3.33329 6.77302H20.6666C21.1018 6.77302 21.4545 6.42028 21.4545 5.98514C21.4545 5.55001 21.1018 5.19727 20.6666 5.19727Z" fill="#5D554A"/>
<path d="M20.6666 16.2273H3.33329C2.89816 16.2273 2.54541 16.58 2.54541 17.0152C2.54541 17.4503 2.89816 17.8031 3.33329 17.8031H20.6666C21.1018 17.8031 21.4545 17.4503 21.4545 17.0152C21.4545 16.58 21.1018 16.2273 20.6666 16.2273Z" fill="#5D554A"/>
</g>
<defs>
<clipPath id="clip0_4942_1235">
<rect width="18.9091" height="18.9091" fill="white" transform="translate(2.54541 2.04541)"/>
</clipPath>
</defs>
</svg>
