<svg width="23" height="23" viewBox="0 0 23 23" fill="none" xmlns="http://www.w3.org/2000/svg">
<g clip-path="url(#clip0_496_6640)">
<path d="M21.7503 20.6667H5.25033C4.52098 20.6667 3.82151 20.3769 3.30578 19.8612C2.79006 19.3455 2.50033 18.646 2.50033 17.9167V1.41667C2.50033 1.17355 2.40375 0.940394 2.23184 0.768485C2.05993 0.596577 1.82677 0.5 1.58366 0.5C1.34054 0.5 1.10739 0.596577 0.935478 0.768485C0.763569 0.940394 0.666992 1.17355 0.666992 1.41667L0.666992 17.9167C0.668448 19.1318 1.1518 20.2967 2.01103 21.156C2.87025 22.0152 4.0352 22.4985 5.25033 22.5H21.7503C21.9934 22.5 22.2266 22.4034 22.3985 22.2315C22.5704 22.0596 22.667 21.8264 22.667 21.5833C22.667 21.3402 22.5704 21.1071 22.3985 20.9352C22.2266 20.7632 21.9934 20.6667 21.7503 20.6667Z" fill="#5D554A"/>
<path d="M6.16666 18.834C6.40978 18.834 6.64294 18.7374 6.81484 18.5655C6.98675 18.3936 7.08333 18.1604 7.08333 17.9173V11.5007C7.08333 11.2575 6.98675 11.0244 6.81484 10.8525C6.64294 10.6806 6.40978 10.584 6.16666 10.584C5.92355 10.584 5.69039 10.6806 5.51849 10.8525C5.34658 11.0244 5.25 11.2575 5.25 11.5007V17.9173C5.25 18.1604 5.34658 18.3936 5.51849 18.5655C5.69039 18.7374 5.92355 18.834 6.16666 18.834Z" fill="#5D554A"/>
<path d="M9.83398 9.66667V17.9167C9.83398 18.1598 9.93056 18.3929 10.1025 18.5648C10.2744 18.7367 10.5075 18.8333 10.7507 18.8333C10.9938 18.8333 11.2269 18.7367 11.3988 18.5648C11.5708 18.3929 11.6673 18.1598 11.6673 17.9167V9.66667C11.6673 9.42355 11.5708 9.19039 11.3988 9.01849C11.2269 8.84658 10.9938 8.75 10.7507 8.75C10.5075 8.75 10.2744 8.84658 10.1025 9.01849C9.93056 9.19039 9.83398 9.42355 9.83398 9.66667Z" fill="#5D554A"/>
<path d="M14.417 12.4167V17.9167C14.417 18.1598 14.5136 18.3929 14.6855 18.5648C14.8574 18.7367 15.0905 18.8333 15.3337 18.8333C15.5768 18.8333 15.8099 18.7367 15.9818 18.5648C16.1538 18.3929 16.2503 18.1598 16.2503 17.9167V12.4167C16.2503 12.1736 16.1538 11.9404 15.9818 11.7685C15.8099 11.5966 15.5768 11.5 15.3337 11.5C15.0905 11.5 14.8574 11.5966 14.6855 11.7685C14.5136 11.9404 14.417 12.1736 14.417 12.4167Z" fill="#5D554A"/>
<path d="M19 8.75065V17.9173C19 18.1604 19.0966 18.3936 19.2685 18.5655C19.4404 18.7374 19.6736 18.834 19.9167 18.834C20.1598 18.834 20.3929 18.7374 20.5649 18.5655C20.7368 18.3936 20.8333 18.1604 20.8333 17.9173V8.75065C20.8333 8.50754 20.7368 8.27438 20.5649 8.10247C20.3929 7.93056 20.1598 7.83398 19.9167 7.83398C19.6736 7.83398 19.4404 7.93056 19.2685 8.10247C19.0966 8.27438 19 8.50754 19 8.75065Z" fill="#5D554A"/>
<path d="M6.16647 8.75045C6.40957 8.7504 6.64269 8.65379 6.81455 8.48187L10.1017 5.1947C10.2764 5.02826 10.5085 4.93542 10.7498 4.93542C10.9911 4.93542 11.2232 5.02826 11.3979 5.1947L13.3889 7.18571C13.9046 7.70125 14.6039 7.99087 15.3331 7.99087C16.0623 7.99087 16.7617 7.70125 17.2774 7.18571L22.3979 2.0652C22.5649 1.89232 22.6573 1.66077 22.6552 1.42042C22.6531 1.18007 22.5567 0.950162 22.3867 0.780204C22.2168 0.610247 21.9869 0.513842 21.7465 0.511753C21.5062 0.509665 21.2746 0.60206 21.1017 0.769038L15.9812 5.88862C15.8093 6.06047 15.5762 6.15701 15.3331 6.15701C15.0901 6.15701 14.857 6.06047 14.6851 5.88862L12.6941 3.89854C12.1784 3.38299 11.479 3.09338 10.7498 3.09338C10.0206 3.09338 9.32126 3.38299 8.80555 3.89854L5.51839 7.18571C5.39023 7.3139 5.30296 7.47722 5.2676 7.65501C5.23225 7.8328 5.2504 8.01708 5.31977 8.18455C5.38913 8.35203 5.50659 8.49518 5.6573 8.59591C5.80801 8.69663 5.9852 8.75042 6.16647 8.75045Z" fill="#5D554A"/>
</g>
<defs>
<clipPath id="clip0_496_6640">
<rect width="22" height="22" fill="white" transform="translate(0.666992 0.5)"/>
</clipPath>
</defs>
</svg>
