<svg width="20" height="19" viewBox="0 0 20 19" fill="none" xmlns="http://www.w3.org/2000/svg">
<g clip-path="url(#clip0_496_6637)">
<path d="M18.6666 8.71094H1.33329C0.898155 8.71094 0.54541 9.06368 0.54541 9.49882C0.54541 9.93396 0.898155 10.2867 1.33329 10.2867H18.6666C19.1018 10.2867 19.4545 9.93396 19.4545 9.49882C19.4545 9.06368 19.1018 8.71094 18.6666 8.71094Z" fill="#5D554A"/>
<path d="M18.6666 3.19727H1.33329C0.898155 3.19727 0.54541 3.55001 0.54541 3.98514C0.54541 4.42028 0.898155 4.77302 1.33329 4.77302H18.6666C19.1018 4.77302 19.4545 4.42028 19.4545 3.98514C19.4545 3.55001 19.1018 3.19727 18.6666 3.19727Z" fill="#5D554A"/>
<path d="M18.6666 14.2266H1.33329C0.898155 14.2266 0.54541 14.5793 0.54541 15.0144C0.54541 15.4496 0.898155 15.8023 1.33329 15.8023H18.6666C19.1018 15.8023 19.4545 15.4496 19.4545 15.0144C19.4545 14.5793 19.1018 14.2266 18.6666 14.2266Z" fill="#5D554A"/>
</g>
<defs>
<clipPath id="clip0_496_6637">
<rect width="18.9091" height="18.9091" fill="white" transform="translate(0.54541 0.0449219)"/>
</clipPath>
</defs>
</svg>
