<svg width="20" height="19" viewBox="0 0 20 19" fill="none" xmlns="http://www.w3.org/2000/svg">
<path d="M15.8486 1.61945H13.8482C13.3034 0.99845 12.6031 0.533704 11.8192 0.272969C11.0354 0.0122343 10.1962 -0.0350853 9.388 0.135873C8.40368 0.336601 7.51386 0.858415 6.85812 1.61945H4.8183C3.77389 1.6207 2.77262 2.03614 2.03411 2.77465C1.2956 3.51316 0.880157 4.51443 0.878906 5.55884L0.878906 15.0134C0.880157 16.0578 1.2956 17.0591 2.03411 17.7976C2.77262 18.5361 3.77389 18.9515 4.8183 18.9528H15.8486C16.893 18.9515 17.8943 18.5361 18.6328 17.7976C19.3713 17.0591 19.7867 16.0578 19.788 15.0134V5.55884C19.7867 4.51443 19.3713 3.51316 18.6328 2.77465C17.8943 2.03614 16.893 1.6207 15.8486 1.61945V1.61945ZM10.3335 1.61945C11.1693 1.61945 11.9709 1.95148 12.5619 2.54251C13.1529 3.13353 13.485 3.93513 13.485 4.77096C13.485 4.97992 13.402 5.18032 13.2542 5.32808C13.1064 5.47583 12.906 5.55884 12.6971 5.55884H11.0173L11.7768 4.42036C11.8928 4.2465 11.935 4.0337 11.894 3.82876C11.8531 3.62383 11.7325 3.44354 11.5586 3.32757C11.3848 3.2116 11.1719 3.16944 10.967 3.21037C10.7621 3.2513 10.5818 3.37196 10.4658 3.54581L9.12406 5.55884H7.96982C7.76086 5.55884 7.56046 5.47583 7.4127 5.32808C7.26495 5.18032 7.18194 4.97992 7.18194 4.77096C7.18194 3.93513 7.51397 3.13353 8.10499 2.54251C8.69602 1.95148 9.49762 1.61945 10.3335 1.61945V1.61945ZM18.2122 15.0134C18.2122 15.6403 17.9632 16.2415 17.5199 16.6847C17.0767 17.128 16.4755 17.377 15.8486 17.377H4.8183C4.19142 17.377 3.59022 17.128 3.14696 16.6847C2.70369 16.2415 2.45466 15.6403 2.45466 15.0134V5.55884C2.45466 4.93197 2.70369 4.33077 3.14696 3.8875C3.59022 3.44423 4.19142 3.19521 4.8183 3.19521H5.91582C5.71168 3.75443 5.60689 4.34504 5.60618 4.94036C5.6068 5.52211 5.83818 6.07987 6.24955 6.49123C6.66091 6.9026 7.21866 7.13397 7.80042 7.1346H12.8665C13.4314 7.13979 13.9762 6.9251 14.3857 6.5359C14.7951 6.14671 15.0372 5.61353 15.0607 5.04909C15.0686 4.4207 14.9772 3.79502 14.7897 3.19521H15.8486C16.4755 3.19521 17.0767 3.44423 17.5199 3.8875C17.9632 4.33077 18.2122 4.93197 18.2122 5.55884V15.0134Z" fill="#5D554A"/>
</svg>
