<svg width="16" height="16" viewBox="0 0 16 16" fill="none" xmlns="http://www.w3.org/2000/svg">
<path d="M15.0367 9.10844L13.77 4.55111C13.3987 3.216 12.5918 2.0433 11.4775 1.21942C10.3633 0.395547 9.00559 -0.0322311 7.6203 0.00408901C6.235 0.0404091 4.9016 0.538742 3.83203 1.41988C2.76247 2.30101 2.01812 3.51438 1.71732 4.86711L0.736655 9.27711C0.628331 9.7644 0.630836 10.2698 0.743983 10.756C0.85713 11.2422 1.07803 11.6968 1.39038 12.0861C1.70272 12.4755 2.09853 12.7898 2.5486 13.0057C2.99866 13.2217 3.49147 13.3338 3.99065 13.3338H4.73332C4.88633 14.0873 5.29514 14.7648 5.89048 15.2514C6.48582 15.738 7.23108 16.0038 7.99999 16.0038C8.76889 16.0038 9.51415 15.738 10.1095 15.2514C10.7048 14.7648 11.1136 14.0873 11.2667 13.3338H11.8253C12.3392 13.3338 12.8461 13.215 13.3065 12.9867C13.7669 12.7584 14.1682 12.4268 14.4792 12.0177C14.7902 11.6086 15.0024 11.1331 15.0992 10.6285C15.196 10.1238 15.1748 9.60358 15.0373 9.10844H15.0367ZM7.99999 14.6671C7.58781 14.6654 7.18623 14.5364 6.85019 14.2977C6.51414 14.059 6.26004 13.7224 6.12265 13.3338H9.87732C9.73993 13.7224 9.48583 14.059 9.14979 14.2977C8.81374 14.5364 8.41216 14.6654 7.99999 14.6671ZM13.4173 11.2104C13.2316 11.4569 12.9909 11.6566 12.7144 11.7938C12.4379 11.9309 12.1333 12.0017 11.8247 12.0004H3.99065C3.69118 12.0004 3.39554 11.9331 3.12555 11.8035C2.85556 11.6739 2.61812 11.4853 2.43076 11.2517C2.2434 11.0181 2.1109 10.7454 2.04303 10.4537C1.97516 10.162 1.97367 9.85878 2.03865 9.56644L3.01865 5.15578C3.25489 4.09325 3.83953 3.14018 4.67963 2.44808C5.51972 1.75597 6.56707 1.36456 7.65517 1.33605C8.74327 1.30755 9.80967 1.64359 10.6849 2.29076C11.56 2.93792 12.1938 3.85908 12.4853 4.90778L13.752 9.46511C13.8357 9.76202 13.849 10.0744 13.7909 10.3773C13.7328 10.6803 13.6049 10.9655 13.4173 11.2104Z" fill="#FC8700"/>
</svg>
