<svg width="17" height="17" viewBox="0 0 17 17" fill="none" xmlns="http://www.w3.org/2000/svg">
<g clip-path="url(#clip0_4896_3101)">
<path fill-rule="evenodd" clip-rule="evenodd" d="M12.0251 1.25409C12.9128 0.248436 14.4987 0.266137 15.5592 1.20263C16.6447 2.16119 16.8391 3.78059 15.8911 4.77655L10.9788 9.93707C10.9454 9.97216 10.9037 9.99817 10.8575 10.0127L7.808 10.9698C7.45378 11.081 7.10216 10.9611 6.86554 10.7467C6.62894 10.5323 6.47518 10.194 6.55255 9.83071L7.20408 6.77128C7.21432 6.7232 7.23679 6.67857 7.26933 6.64171L12.0251 1.25409ZM7.57385 2.37249C6.18294 2.37249 4.83081 2.52237 3.56149 2.66897C2.10782 2.83686 0.945278 3.99433 0.782247 5.45149C0.640946 6.71442 0.5 8.05601 0.5 9.43618C0.5 10.8164 0.640946 12.1579 0.782248 13.4209C0.945278 14.8781 2.10782 16.0355 3.56149 16.2034C4.83081 16.3501 6.18294 16.4999 7.57385 16.4999C8.96475 16.4999 10.3169 16.3501 11.5862 16.2034C13.0399 16.0355 14.2024 14.8781 14.3655 13.4209C14.4919 12.2912 14.6178 11.0987 14.6431 9.87408C14.6512 9.47968 14.3381 9.15336 13.9437 9.14522C13.5493 9.1371 13.223 9.45023 13.2149 9.84464C13.1911 10.9974 13.0722 12.1319 12.9457 13.2621C12.8573 14.0533 12.2195 14.6922 11.4223 14.7842C10.1481 14.9314 8.87205 15.0713 7.57385 15.0713C6.27566 15.0713 4.99954 14.9314 3.72538 14.7842C2.92811 14.6922 2.29048 14.0533 2.20197 13.2621C2.06049 11.9976 1.92857 10.7278 1.92857 9.43618C1.92857 8.14459 2.06049 6.87478 2.20197 5.61032C2.29048 4.81912 2.92811 4.18018 3.72538 4.0881C4.99954 3.94095 6.27566 3.80106 7.57385 3.80106C7.96834 3.80106 8.28814 3.48127 8.28814 3.08678C8.28814 2.69229 7.96834 2.37249 7.57385 2.37249Z" fill="#34C759"/>
</g>
<defs>
<clipPath id="clip0_4896_3101">
<rect width="16" height="16" fill="white" transform="translate(0.5 0.5)"/>
</clipPath>
</defs>
</svg>
