<svg width="16" height="16" viewBox="0 0 16 16" fill="none" xmlns="http://www.w3.org/2000/svg">
<path d="M7.99987 14.9001C11.8103 14.9001 14.8992 11.8113 14.8992 8.00085C14.8992 4.19048 11.8103 1.10156 7.99987 1.10156C4.1895 1.10156 1.10059 4.19048 1.10059 8.00085C1.10059 11.8113 4.1895 14.9001 7.99987 14.9001Z" stroke="#FC8700" stroke-width="1.71" stroke-linecap="round" stroke-linejoin="round"/>
<path d="M6.14258 6.14265C6.14258 5.77527 6.25162 5.41615 6.45591 5.11068C6.66019 4.80522 6.95057 4.56714 7.29029 4.42654C7.63001 4.28596 8.00384 4.24918 8.36448 4.32085C8.72513 4.39251 9.0564 4.56942 9.31642 4.82921C9.57643 5.08898 9.75349 5.41996 9.82524 5.78027C9.89697 6.14059 9.86016 6.51407 9.71943 6.85348C9.57872 7.19289 9.34042 7.48299 9.03467 7.68709C8.72894 7.8912 8.36948 8.00014 8.00177 8.00014V9.23847" stroke="#FC8700" stroke-width="1.71" stroke-linecap="round" stroke-linejoin="round"/>
<path d="M7.99973 11.6713C7.85318 11.6713 7.73438 11.5526 7.73438 11.406C7.73438 11.2594 7.85318 11.1406 7.99973 11.1406" stroke="#FC8700" stroke-width="1.71" stroke-linecap="round" stroke-linejoin="round"/>
<path d="M8 11.6713C8.14655 11.6713 8.26536 11.5526 8.26536 11.406C8.26536 11.2594 8.14655 11.1406 8 11.1406" stroke="#FC8700" stroke-width="1.71" stroke-linecap="round" stroke-linejoin="round"/>
</svg>
