<svg width="22" height="24" viewBox="0 0 22 24" fill="none" xmlns="http://www.w3.org/2000/svg">
<path d="M8.18194 4.43713L8.86657 2.66985C8.98203 2.37063 9.18517 2.11325 9.44937 1.93143C9.71359 1.74961 10.0265 1.65183 10.3473 1.65088H11.6528C11.9735 1.65183 12.2865 1.74961 12.5507 1.93143C12.8149 2.11325 13.018 2.37063 13.1335 2.66985L13.8181 4.43713L16.1426 5.77453L18.0213 5.48794C18.3342 5.44548 18.6526 5.49697 18.9362 5.63589C19.2196 5.7748 19.4554 5.99485 19.6135 6.26809L20.2503 7.38259C20.4135 7.66018 20.4888 7.98073 20.4661 8.30193C20.4433 8.62313 20.3237 8.92989 20.123 9.18171L18.9607 10.6624V13.3372L20.1548 14.8179C20.3556 15.0697 20.4751 15.3765 20.4979 15.6977C20.5207 16.0189 20.4454 16.3394 20.2822 16.617L19.6453 17.7315C19.4872 18.0047 19.2514 18.2248 18.968 18.3638C18.6845 18.5026 18.366 18.5542 18.0532 18.5117L16.1744 18.2251L13.85 19.5625L13.1654 21.3298C13.0499 21.6289 12.8468 21.8864 12.5825 22.0682C12.3183 22.25 12.0054 22.3478 11.6847 22.3487H10.3473C10.0265 22.3478 9.71359 22.25 9.44937 22.0682C9.18517 21.8864 8.98203 21.6289 8.86657 21.3298L8.18194 19.5625L5.85742 18.2251L3.97869 18.5117C3.66586 18.5542 3.34747 18.5026 3.06397 18.3638C2.78049 18.2248 2.54469 18.0047 2.38654 17.7315L1.74969 16.617C1.58649 16.3394 1.51131 16.0189 1.53405 15.6977C1.55678 15.3765 1.67639 15.0697 1.87706 14.8179L3.03932 13.3372V10.6624L1.84522 9.18171C1.64454 8.92989 1.52494 8.62313 1.5022 8.30193C1.47947 7.98073 1.55465 7.66018 1.71784 7.38259L2.3547 6.26809C2.51285 5.99485 2.74865 5.7748 3.03213 5.63589C3.31562 5.49697 3.63402 5.44548 3.94684 5.48794L5.82557 5.77453L8.18194 4.43713ZM7.81575 11.9998C7.81575 12.6296 8.00251 13.2452 8.3524 13.7689C8.70231 14.2926 9.19961 14.7007 9.78146 14.9417C10.3633 15.1827 11.0036 15.2458 11.6213 15.1229C12.2389 15 12.8063 14.6968 13.2517 14.2514C13.697 13.8061 14.0003 13.2387 14.1231 12.621C14.246 12.0033 14.183 11.3631 13.9419 10.7812C13.7009 10.1994 13.2928 9.70206 12.7691 9.35217C12.2455 9.00228 11.6298 8.81552 11 8.81552C10.1555 8.81552 9.34558 9.151 8.74841 9.74818C8.15125 10.3453 7.81575 11.1553 7.81575 11.9998Z" stroke="#BBB6B0" stroke-width="1.71" stroke-linecap="round" stroke-linejoin="round"/>
</svg>
