<?xml version="1.0" encoding="iso-8859-1"?>
<!-- Generator: Adobe Illustrator 19.0.0, SVG Export Plug-In . SVG Version: 6.00 Build 0)  -->
<svg version="1.1" id="Capa_1" xmlns="http://www.w3.org/2000/svg" xmlns:xlink="http://www.w3.org/1999/xlink" x="0px" y="0px"
	 viewBox="0 0 512 512" style="enable-background:new 0 0 512 512;" xml:space="preserve">
<path style="fill:#23A24D;" d="M511.983,383.335v77.074c0.115,28.381-22.846,51.474-51.279,51.588
	c-1.615,0.009-3.231-0.062-4.846-0.212c-79.219-8.589-155.304-35.602-222.164-78.874C171.494,393.46,118.758,340.83,79.237,278.754
	C35.735,211.744,8.66,135.43,0.212,56.017C-2.348,27.751,18.538,2.769,46.857,0.217c1.527-0.141,3.054-0.212,4.582-0.212h77.233
	c25.838-0.256,47.872,18.653,51.482,44.191c3.257,24.664,9.304,48.887,18.017,72.192c7.071,18.776,2.551,39.945-11.582,54.21
	l-32.697,32.627c36.643,64.318,90.006,117.575,154.456,154.156l32.697-32.627c14.292-14.106,35.505-18.617,54.316-11.564
	c23.358,8.695,47.625,14.733,72.342,17.982C493.595,334.827,512.636,357.249,511.983,383.335z"/>
<g>
	<path style="fill:#177734;" d="M52.966,150.075c-3.805,0-7.309-2.481-8.457-6.303C35.92,114.994,29.882,84.53,26.545,53.218
		c-0.794-8.898,3.743-15.378,5.729-17.752c2.472-2.957,7.971-8.06,16.967-8.872c0.733-0.071,1.465-0.106,2.198-0.106h72.148
		c4.882,0,8.828,3.964,8.828,8.836s-3.955,8.819-8.828,8.819c0,0,0,0-0.009,0h-72.13c-3.284,0.265-4.89,1.766-5.623,2.631
		c-0.45,0.547-1.907,2.481-1.704,4.723c3.204,30.093,9.031,59.489,17.311,87.225c1.395,4.67-1.262,9.587-5.932,10.982
		C54.652,149.96,53.796,150.075,52.966,150.075z"/>
	<path style="fill:#177734;" d="M460.597,485.523c-0.212,0-1.686-0.035-2.41-0.106c-31.391-3.407-61.608-9.428-89.953-17.92
		c-4.67-1.404-7.327-6.321-5.923-10.99c1.395-4.67,6.329-7.327,10.99-5.923c27.321,8.183,56.47,13.992,86.634,17.267l0.812,0.018
		c1.748-0.009,3.584-0.777,4.97-2.172c1.386-1.395,2.145-3.266,2.136-5.252l0.009-72.024c0-4.873,3.955-8.828,8.828-8.828l0,0
		c4.873,0,8.828,3.955,8.828,8.828l-0.009,71.989c0.026,6.674-2.551,12.977-7.256,17.726
		C473.547,482.875,467.28,485.496,460.597,485.523z"/>
</g>
<path style="fill:#1081E0;" d="M353.104,17.661L353.104,17.661c0,9.754,7.901,17.655,17.655,17.655h79.448L300.077,186.841
	c-6.868,6.938-6.841,18.123,0.062,25.026l0,0c6.903,6.903,18.088,6.93,25.026,0.053L476.69,61.799v79.448
	c0,9.754,7.901,17.655,17.655,17.655l0,0c9.754,0,17.655-7.901,17.655-17.655V35.316V17.661V0.006H370.759
	C361.005,0.006,353.104,7.906,353.104,17.661z"/>
<g>
</g>
<g>
</g>
<g>
</g>
<g>
</g>
<g>
</g>
<g>
</g>
<g>
</g>
<g>
</g>
<g>
</g>
<g>
</g>
<g>
</g>
<g>
</g>
<g>
</g>
<g>
</g>
<g>
</g>
</svg>
