<svg width="16" height="16" viewBox="0 0 16 16" fill="none" xmlns="http://www.w3.org/2000/svg">
<path d="M14.5333 3.7193L9.86667 0.569967C9.31615 0.195565 8.66577 -0.00463867 8 -0.00463867C7.33423 -0.00463867 6.68385 0.195565 6.13333 0.569967L1.46667 3.7193C1.01477 4.02475 0.644731 4.43643 0.389017 4.91822C0.133302 5.40001 -0.000276279 5.93719 4.29026e-07 6.48263V12.6666C0.001059 13.5504 0.352588 14.3976 0.97748 15.0225C1.60237 15.6474 2.4496 15.9989 3.33333 16H12.6667C13.5504 15.9989 14.3976 15.6474 15.0225 15.0225C15.6474 14.3976 15.9989 13.5504 16 12.6666V6.48263C16.0003 5.93719 15.8667 5.40001 15.611 4.91822C15.3553 4.43643 14.9852 4.02475 14.5333 3.7193ZM14.6667 12.6666C14.6667 13.1971 14.456 13.7058 14.0809 14.0808C13.7058 14.4559 13.1971 14.6666 12.6667 14.6666H3.33333C2.8029 14.6666 2.29419 14.4559 1.91912 14.0808C1.54405 13.7058 1.33333 13.1971 1.33333 12.6666V6.48263C1.33332 6.15525 1.41367 5.83286 1.56733 5.54378C1.721 5.25469 1.94328 5.00775 2.21467 4.82463L6.88133 1.6753C7.21132 1.45111 7.60106 1.33125 8 1.33125C8.39894 1.33125 8.78868 1.45111 9.11867 1.6753L13.7853 4.82463C14.0567 5.00775 14.279 5.25469 14.4327 5.54378C14.5863 5.83286 14.6667 6.15525 14.6667 6.48263V12.6666ZM8 4.67063C7.20816 4.67054 6.43411 4.90546 5.7759 5.34565C5.11768 5.78583 4.60493 6.41147 4.30258 7.14332C4.00023 7.87516 3.9219 8.68028 4.0775 9.45668C4.23311 10.2331 4.61565 10.9458 5.17667 11.5046L6.39267 12.694C6.82355 13.1112 7.39985 13.3446 7.99967 13.3446C8.59948 13.3446 9.17578 13.1112 9.60667 12.694L10.8287 11.4993C11.3882 10.9399 11.7692 10.2271 11.9236 9.45113C12.078 8.67514 11.9988 7.8708 11.696 7.13983C11.3932 6.40887 10.8804 5.78412 10.2225 5.3446C9.56465 4.90508 8.7912 4.67054 8 4.67063ZM9.89067 10.5513L8.674 11.7413C8.49319 11.9164 8.25136 12.0143 7.99967 12.0143C7.74797 12.0143 7.50614 11.9164 7.32533 11.7413L6.114 10.5566C5.7413 10.1839 5.48742 9.70911 5.38442 9.19218C5.28142 8.67525 5.33392 8.13939 5.53529 7.65229C5.73666 7.16518 6.07787 6.74867 6.51582 6.45538C6.95377 6.16208 7.46882 6.00515 7.99591 6.00441C8.523 6.00366 9.03849 6.15914 9.47726 6.4512C9.91604 6.74325 10.2584 7.15879 10.4612 7.64533C10.6639 8.13187 10.7179 8.66757 10.6164 9.18479C10.5149 9.70201 10.2623 10.1775 9.89067 10.5513ZM8.66667 8.66663C8.66667 8.79849 8.62757 8.92738 8.55431 9.03701C8.48106 9.14665 8.37694 9.23209 8.25512 9.28255C8.13331 9.33301 7.99926 9.34621 7.86994 9.32049C7.74062 9.29477 7.62183 9.23127 7.5286 9.13804C7.43536 9.0448 7.37187 8.92601 7.34614 8.79669C7.32042 8.66737 7.33362 8.53333 7.38408 8.41151C7.43454 8.28969 7.51999 8.18558 7.62962 8.11232C7.73925 8.03907 7.86815 7.99997 8 7.99997C8.17681 7.99997 8.34638 8.0702 8.47141 8.19523C8.59643 8.32025 8.66667 8.48982 8.66667 8.66663Z" fill="#FC8700"/>
</svg>
