<svg width="16" height="16" viewBox="0 0 16 16" fill="none" xmlns="http://www.w3.org/2000/svg">
<path fill-rule="evenodd" clip-rule="evenodd" d="M3.11365 3.11365C2.0451 4.18219 1.42857 5.80005 1.42857 8C1.42857 10.2 2.0451 11.8178 3.11365 12.8864C3.19561 12.9683 3.28081 13.0477 3.36927 13.1242C3.67543 12.3158 4.18978 11.597 4.86627 11.0441C5.75065 10.3212 6.85773 9.92634 7.99993 9.92634C9.14213 9.92634 10.2492 10.3212 11.1336 11.0441C11.8101 11.597 12.3245 12.3159 12.6306 13.1243C12.7191 13.0477 12.8043 12.9683 12.8864 12.8864C13.9549 11.8178 14.5714 10.2 14.5714 8C14.5714 5.80005 13.9549 4.18219 12.8864 3.11365C11.8178 2.0451 10.2 1.42857 8 1.42857C5.80005 1.42857 4.18219 2.0451 3.11365 3.11365ZM8 16C9.7753 16 11.3231 15.639 12.5765 14.9098C12.6431 14.8848 12.7027 14.8482 12.7538 14.803C13.1699 14.5434 13.5517 14.2414 13.8965 13.8965C15.3051 12.4879 16 10.4629 16 8C16 5.5371 15.3051 3.51209 13.8965 2.1035C12.4879 0.694903 10.4629 0 8 0C5.5371 0 3.51209 0.694903 2.1035 2.1035C0.694903 3.51209 0 5.5371 0 8C0 10.4629 0.694903 12.4879 2.1035 13.8965C3.51209 15.3051 5.5371 16 8 16ZM6.35435 6.16302C6.35435 5.53929 6.52757 5.15287 6.75874 4.92169C6.98992 4.69051 7.37634 4.5173 8.00007 4.5173C8.62379 4.5173 9.01022 4.69051 9.24139 4.92169C9.47257 5.15287 9.64578 5.53929 9.64578 6.16302C9.64578 6.78673 9.47257 7.17315 9.24139 7.40434C9.01022 7.63552 8.62379 7.80873 8.00007 7.80873C7.37634 7.80873 6.98992 7.63552 6.75874 7.40434C6.52757 7.17315 6.35435 6.78673 6.35435 6.16302ZM8.00007 3.08873C7.11339 3.08873 6.31982 3.34032 5.74859 3.91154C5.17737 4.48275 4.92578 5.27633 4.92578 6.16302C4.92578 7.04969 5.17737 7.84327 5.74859 8.41449C6.31982 8.98571 7.11339 9.2373 8.00007 9.2373C8.88674 9.2373 9.68032 8.98571 10.2515 8.41449C10.8228 7.84327 11.0744 7.04969 11.0744 6.16302C11.0744 5.27633 10.8228 4.48275 10.2515 3.91154C9.68032 3.34032 8.88674 3.08873 8.00007 3.08873Z" fill="#FC8700"/>
</svg>
